<?xml version="1.0" encoding="UTF-8"?>
<svg id="Layer_1" xmlns="http://www.w3.org/2000/svg" version="1.1" viewBox="0 0 128.07 61.4">
  <!-- Generator: Adobe Illustrator 29.3.1, SVG Export Plug-In . SVG Version: 2.1.0 Build 151)  -->
  <path d="M92.45-242.22l1.21-51.75,4.69-1.17c1.27,2.33,2.18,7.9,4.14,9.38,5.04,3.81,23.65,4.23,24.93,14.13s-8.79,5.78-14.98,6.41c-1.8,15.38,8.09,33.09-1.56,46.94-2.36,3.39-6.81,5.95-9.04,9.57l-.44,39.82c.22.91,2.76,1.68,3.58,1.62,2.75-.21,33.31-35.46,38.07-39.9l21.37,19.48,2.27-.5,6.57-7.37-19.81-20.16,31.47-31.51c2.95,6.92,28.19,26.1,29.41,30.71.37,1.39-.16,1.84-.83,2.84-2.75,4.09-17.19,14.21-17.96,17.16-.47,1.82,5.86,11.14,8.88,8.83l20.52-20.53c5.48,6.16,11.09,12.25,16.48,18.52,1.85,2.16,17.96,24.52,21.02,21.47l-12.85-27.75c-.66-2.93,4.92-5.96,4.69-8.58-.2-2.25-6.41-8.86-7.39-13.6-.89-4.32-.28-8.71-.45-13.06-2.83,2.15-5.21,3.57-8.99,3-3.02-3.95,5.41-14,7.5-14h63.5l.94-52.56,6.07-.43c-2.84,10.36,11.67,11.86,18.92,16.57,2.39,1.56,7.7,5.15,8.12,7.97,1.41,9.67-14.71,2.7-15.95,7.07-.4,1.41,3.64,19.91,3.91,23.89.25,3.68.51,10.49-.04,13.93-1,6.25-10.51,11.31-13.48,16.54.33,11.97-1.63,25.61-1.05,37.37.04.8.38,3.59,1.17,3.72l3.48-.51,40.45-40.55,18.98,21.06c1.5.01,9.06-7,8.41-9.36l-18.87-20.22,29.46-30.26,30.5,31.28-19.53,18.53-.07,2c.35,1.3,5.41,6.82,6.63,7.48,3.47,1.87,2.79-.8,4.44-2.52,5.56-5.77,11.49-11.2,17.06-16.97l37.49,38.98c-.11-9.5-12.01-19.35-9.79-29.28.56-2.5,3.83-4.81,3.76-7.22-.04-1.3-6.19-9.99-7.28-13.68s-1.84-8.22-.69-11.81c-2.87-.07-4.81,2.81-7.58,3-7.88.52.04-14,4.09-14h64l1.5-1.5v-51.5h6.99c0,2.65.09,6.49,2.03,8.47,3.42,3.49,17.29,7.24,21.63,10.87,2.43,2.03,3.87,9.48.7,10.52l-12.37.13c-.78,12.88,4.93,26.54,2.94,39.44-1.04,6.72-9.18,10.94-12.73,16.27l-.21,41.3c4.23.01,8.83.57,12.53-1.98,10.9-12.5,24.3-23.28,33.49-37.02,1.43-.35,1.65.23,2.52.99,5.62,4.92,10.73,14.8,16.93,19.06,3.06,2.1,8.72-5.67,10.39-8.39-.36-4.03-17.19-16.37-17.91-22.08l30.44-30.55c8.66,11.23,20.97,19.32,28.37,31.47l-19.75,20.99,7,8.49c1.55.81,17.87-20.02,21.98-20.55,18.98,18.45,34.17,40.5,54.51,57.56l-1.15,1.87-699.86.14,17.5-19.41,1.49.41h15.5c-1.22-8.44-12.21-20.88-9.55-29.06.72-2.23,4.17-4.35,4.2-6.43.03-2.73-6.8-9.2-7.96-13.69s-.55-9.18-.69-13.81l-6.95,1.97c-4.18-3.65,3.17-13.97,5.46-13.97h61.5ZM406.01-219.76c-1.11-1.07-7.12-6.59-7.96-6.42l-7.54,10.32c2.12,1.89,7.55,9.42,10.3,8.58l7.49-8.64c.83-1.91-.94-2.53-2.29-3.84ZM623.1-222.87c-.49-.47-3.45-2.48-3.63-2.35l-7.95,9.64c-.25,1.41,6.85,8.26,8.48,8.42,4.54.44,5.46-6.38,9.4-7.12l.03-1.41c-2.54-1.77-4.37-5.31-6.33-7.18ZM184.36-224.12c-1.63-.66-8.95,6.75-8.95,8.4l8.54,9.48,8.51-7.49-8.1-10.39ZM87.45-210.23l-27.38-.05c-1.35,7.2-13.82,13.18-12.43,20.31.38,1.95,8.75,21.7,9.79,22.33l32.91-.68-2.9-41.9ZM306.45-168.22c-1.36-7.26-.99-36.92-4.49-41.01-2.06-2.41-24.79-.24-29.52-.98,1.97,5.86-8.74,10.99-9.09,16.49-.26,4.01,4,9.58,5.58,13.52s1.95,8.55,4.02,11.98h33.5ZM522.45-168.22l-4.49-41.05-32.48-.91c1.99,5.35-10.07,13.79-10.05,16.44,4.05,8.43,10.52,16.04,12.05,25.52h34.97ZM407.35-179.09l-10.26-6.98-7.65,7.37,8.49,10.22c2.06-.94,10.64-8.79,9.42-10.62ZM178.03-174.85c1.29,1.63,3.67,5.66,5.92,5.66l7.43-7.4-8.4-7.64-6.46,8.94c.48.05,1.24.09,1.52.43ZM617.58-168.36c2.55,1.48,6.97-4.62,8.63-6.35l-7.4-9.44-7.22,7.6,5.98,8.19Z"/>
  <path d="M470.67-313.19l1.35,10.18c.82,6.19,5.81,10.98,12.02,11.56l10.22.95-10.18,1.35c-6.19.82-10.98,5.81-11.56,12.02l-.95,10.22-1.35-10.18c-.82-6.19-5.81-10.98-12.02-11.56l-10.22-.95,10.18-1.35c6.19-.82,10.98-5.81,11.56-12.02l.95-10.22Z"/>
  <path d="M246.89-313.19l1.35,10.18c.82,6.19,5.81,10.98,12.02,11.56l10.22.95-10.18,1.35c-6.19.82-10.98,5.81-11.56,12.02l-.95,10.22-1.35-10.18c-.82-6.19-5.81-10.98-12.02-11.56l-10.22-.95,10.18-1.35c6.19-.82,10.98-5.81,11.56-12.02l.95-10.22Z"/>
  <path d="M22-313.19l1.35,10.18c.82,6.19,5.81,10.98,12.02,11.56l10.22.95-10.18,1.35c-6.19.82-10.98,5.81-11.56,12.02l-.95,10.22-1.35-10.18c-.82-6.19-5.81-10.98-12.02-11.56l-10.22-.95,10.18-1.35c6.19-.82,10.98-5.81,11.56-12.02l.95-10.22Z"/>
</svg>