<?xml version="1.0" encoding="UTF-8"?>
<svg id="Layer_1" xmlns="http://www.w3.org/2000/svg" version="1.1" viewBox="0 0 110.43 138.99">
  <!-- Generator: Adobe Illustrator 29.3.1, SVG Export Plug-In . SVG Version: 2.1.0 Build 151)  -->
  <path d="M24.03-.03l1.43,10.77c.87,6.55,6.15,11.62,12.73,12.23l10.82,1-10.77,1.43c-6.55.87-11.62,6.15-12.23,12.73l-1,10.82-1.43-10.77c-.87-6.55-6.15-11.62-12.73-12.23L.03,24.94l10.77-1.43c6.55-.87,11.62-6.15,12.23-12.73L24.03-.03Z"/>
  <path d="M110.33,34.55c-1.28-9.9-19.9-10.32-24.93-14.13-1.96-1.48-2.87-7.05-4.14-9.38l-4.69,1.17-1.21,51.75H13.86c-2.29,0-9.64,10.32-5.46,13.97l6.95-1.97c.14,4.63-.5,9.23.69,13.81,1.16,4.48,7.99,10.96,7.96,13.69-.02,2.08-3.47,4.21-4.2,6.43-2.66,8.18,8.33,20.62,9.55,29.06h11.37c0-.14,0-.28,0-.43h-.37c-1.04-.62-9.41-20.38-9.79-22.33-1.39-7.13,11.07-13.11,12.43-20.31l27.38.05,2.9,41.9v.25c.03.35.06.4.05.79t0,.09l11.95-.03c.07-.23.15-.45.25-.66-.6-.28-1.1-.63-1.19-1.01l.44-39.82c2.23-3.62,6.68-6.17,9.04-9.57,9.64-13.85-.24-31.56,1.56-46.94,6.19-.62,16.2,3.03,14.98-6.41Z"/>
</svg>