<?xml version="1.0" encoding="UTF-8"?>
<svg id="Layer_1" xmlns="http://www.w3.org/2000/svg" version="1.1" viewBox="0 0 26.47 26.57">
  <!-- Generator: Adobe Illustrator 29.3.1, SVG Export Plug-In . SVG Version: 2.1.0 Build 151)  -->
  <defs>
    <style>
      .st0 {
        fill: #edd815;
      }
    </style>
  </defs>
  <path class="st0" d="M12.65,23.93s-.07-.04-.11-.04l.57-10.61-1.95,10.45c-.16-.05-1.25-.27-1.27-.39l3.15-10.07.1-.03.02-.09c.1-.01.46.31.55.39.77.65,1.5,1.38,2.25,2.05,1.74,1.56,3.5,3.11,5.24,4.67l-.08.15-.89.86-6.92-7.98,5.78,8.85c-.19.15-.4.27-.61.39-.09.05-.55.32-.6.28l-4.67-9.56,3.36,10.13c-.41.13-.85.29-1.28.31l-2.15-10.4.74,10.65c-.38-.04-.85.05-1.23,0Z"/>
  <path class="st0" d="M23.85,13.72l-10.48-.69c.12,0,.24-.04.35-.05,1.77-.1,3.54-.18,5.31-.3,1.61-.11,3.21-.3,4.82-.34-.03.03,0,.06,0,.08v1.29Z"/>
  <path class="st0" d="M23.68,15.13c-.12.44-.21.9-.37,1.33h-.08s-9.93-3.38-9.93-3.38l10.38,2.05Z"/>
  <polygon class="st0" points="13.34 13.15 22.77 17.9 22.02 19.09 13.34 13.15"/>
  <path class="st0" d="M13.03,13.15s-.17.46-.2.53c-.75,1.67-1.58,3.31-2.35,4.97-.64,1.38-1.24,2.79-1.94,4.14l-1.12-.61v-.1s5.5-8.77,5.5-8.77l-6.68,7.91-.09-.02-.92-.95,7.72-7.04-8.62,5.81-.72-1.21,9.27-4.67-9.69,3.29-.08-.02-.37-1.32c1.51-.28,3.03-.56,4.54-.86,1.69-.33,3.37-.76,5.06-1.05.23-.04.45-.1.68-.04Z"/>
  <polygon class="st0" points="2.62 12.31 12.9 13.04 2.86 10.9 3.25 9.58 12.97 13.04 2.62 13.68 2.62 12.31"/>
  <polygon class="st0" points="23.61 10.89 13.37 12.98 23.2 9.59 23.61 10.89"/>
  <polygon class="st0" points="22.67 8.31 13.37 12.91 21.95 7.13 22.67 8.31"/>
  <path class="st0" d="M13.3,12.81l6.83-7.69.91.87-7.81,6.92c.01-.2.12-.4.21-.58.85-1.87,1.93-3.76,2.87-5.6.52-1.02,1.03-2.05,1.53-3.09.31.17.68.32.97.52.06.04.16.07.12.15l-5.63,8.5Z"/>
  <polygon class="st0" points="12.87 12.91 3.85 8.34 3.8 8.29 3.81 8.24 4.52 7.17 12.87 12.91"/>
  <polygon class="st0" points="13.87 2.63 13.12 12.84 12.56 2.63 13.87 2.63"/>
  <polygon class="st0" points="12.9 12.84 5.36 5.99 6.25 5.17 6.32 5.17 12.9 12.84"/>
  <path class="st0" d="M11.15,2.83l1.91,10.04L7.43,4.26c0-.06.93-.55,1.05-.59.03-.01.04-.05.07,0l4.45,9.1-3.09-9.66,1.24-.29Z"/>
  <path class="st0" d="M13.2,12.84c-.06,0-.04-.11-.03-.15.08-.99.51-2.36.73-3.37.46-2.16.89-4.33,1.39-6.47.06-.04,1.11.2,1.24.3l-3.32,9.69Z"/>
</svg>